<svg height="24" viewBox="0 0 60 60" width="24" xmlns="http://www.w3.org/2000/svg"><g id="087---Account-Blocked" fill="none"><g id="Icons" transform="translate(1 1)"><path id="Shape" d="m58 29c-.0004652 7.9495901-3.2642918 15.550451-9.0282593 21.0251804-5.7639675 5.4747293-13.5226503 8.3432641-21.4617407 7.9348196h-.02c-15.4032699-.8098574-27.4773707-13.5354549-27.4773707-28.96s12.0741008-28.15014261 27.4773707-28.96h.02c7.9390904-.40844447 15.6977732 2.46009026 21.4617407 7.93481964 5.7639675 5.47472936 9.0277941 13.07559026 9.0282593 21.02518036z" fill="#cad9fc"/><path id="Shape" d="m55 29c-.0003518 15.4291761-12.0817537 28.1566188-27.49 28.96h-.02c-15.4032699-.8098574-27.4773707-13.5354549-27.4773707-28.96s12.0741008-28.15014261 27.4773707-28.96h.02c15.4055173.80930272 27.4835927 13.533241 27.49 28.96z" fill="#e8edfc"/><path id="Shape" d="m45.79 52.64c-10.0521053 7.1481874-23.5278947 7.1481874-33.58 0l8.21-3.14c1.5547763-.5879406 2.5825219-2.0777735 2.58-3.74 0-1.816.181-3.068-.75-4.36l-4.14-7.16c-.0900081-.7430571-.1234376-1.4918783-.1-2.24h-1.02c-1.6568542 0-3-1.3431458-3-3v-3c-.0030303-1.2050478.7188117-2.2937276 1.83-2.76-2.52-7.56.488-16.84 8.59-18.1 5.207-.808 12.121 1.452 13.75 6.63.428 1.122-.306.225 1.32 1.1l3.49 7.81c-.0419956.7821188-.1558079 1.5587204-.34 2.32l-.22.35c.9857971.5158276 1.6025986 1.5374052 1.6 2.65v3c0 1.6568542-1.3431458 3-3 3h-1.02c.01.12.01.26.01.39.1562707 3.221755-1.205731 6.3306719-3.68 8.4-.8521994.7500321-1.3343366 1.8348408-1.32 2.97v2c-.0025219 1.6622265 1.0252237 3.1520594 2.58 3.74z" fill="#e8edfc"/><path id="Shape" d="m52.13 11.52-1.76 1.76c-1.4541335-2.2555151-3.2180518-4.29546647-5.24-6.06l1.35-1.35c2.1436529 1.60366034 4.0463397 3.50634712 5.65 5.65z" fill="#cad9fc"/><path id="Shape" d="m50.37 13.28-38.85 38.85c-2.14256358-1.6049175-4.04508253-3.5074364-5.65-5.65l39.26-39.26c2.0219482 1.76453353 3.7858665 3.8044849 5.24 6.06z" fill="#e8edfc"/></g><path id="Shape" d="m22.812 58.329c2.5441122.5517932 5.1501345.7639739 7.75.631-1.5976591-.082979-3.1860871-.2939891-4.75-.631-14.1824688-3.1048896-23.88345305-16.2190437-22.70187219-30.6892416s12.88157219-25.83683035 27.37987219-26.5997584h.02.11c-1.0358416-.05849315-2.0741584-.05849315-3.11 0h-.02c-14.4983.76292805-26.19829133 12.1295605-27.37987219 26.5997584s8.51940338 27.584352 22.70187219 30.6892416z" fill="#fff" transform="translate(1)"/><g id="Layer_10" transform="translate(-1)"><path id="Shape" d="m2.154 21.832 1.925.544c-.45429371 1.5448358-.76560374 3.1281653-.93 4.73-.064 1.214-.031.574-.149 2.894h-2c-.01238156-1.380125.09300055-2.7587906.315-4.121.15748194-1.3714718.43828511-2.7259538.839-4.047z" fill="#fff"/><g fill="#428dff"><path id="Shape" d="m2.324 27.011c-.55228475 0-1-.4477153-1-1s.44771525-1 1-1 1 .4477153 1 1-.44771525 1-1 1z"/><path id="Shape" d="m49.189 6.165-.008-.006c-7.8894596-6.01873276-18.2461325-7.74323949-27.6602103-4.60574738s-16.66548701 10.73036108-19.3667897 20.27874738c-.15022144.5315741.15892594 1.0842785.6905 1.2345.53157407.1502214 1.08427854-.1589259 1.2345-.6905 2.45834656-8.6959819 8.9662132-15.66869597 17.4721998-18.7202137 8.5059866-3.05151772 17.9621752-1.80589914 25.3878002 3.3442137-6.129 6.129-5.61 5.683-5.772 5.621-1.698-5.297-7.34-7.621-12.967-7.621-9.322 0-14.053 9.413-11.571 18.77-1.0332384.7510701-1.6429467 1.9526307-1.639 3.23v3c-.0000161 1.0646887.4244299 2.0854527 1.1793403 2.8362338.7549105.7507811 1.7779871 1.169622 2.8426597 1.1637662.011.28.041.57.067.858l-11.079 11.081c-3.25910875-4.675842-5.00437914-10.239415-5-15.939 0-.5522847-.44771525-1-1-1s-1 .4477153-1 1c.00349031 9.3524035 4.37157158 18.1673402 11.811 23.835l.008.006c10.3913299 7.9567551 24.7497727 8.2306583 35.437.676.0802672-.0414569.1543221-.0939685.22-.156 7.7247161-5.5401506 12.3644838-14.4153068 12.5050866-23.9202917.1406028-9.5049848-4.2346202-18.5134956-11.7920866-24.2797083zm-28.444 26.157c-.359-.389-.663-.322-1.755-.322-1.1045695 0-2-.8954305-2-2v-3c-.0024065-.5311671.2075343-1.0412743.58313-1.41687s.8857029-.5855365 1.41687-.58313c.5522847 0 1-.4477153 1-1s-.4477153-1-1-1c-.1578355.00633-.3151324.0223603-.471.048-2.002-7.957 1.769-16.048 9.681-16.048 4.839 0 10.06 1.986 11.167 6.631.0572151.2248677.1908468.4228406.378.56l-18.755 18.756c-.0063012-.2305258-.0929632-.4516025-.245-.625zm-11.536 15.233 39.346-39.346c1.558018 1.25801434 2.9779857 2.677982 4.236 4.236l-39.346 39.346c-1.558018-1.2580143-2.9779857-2.677982-4.236-4.236zm14.791-.795c.0079944 1.2491626-.7659995 2.3699954-1.937 2.805l-5.769 2.2 7.635-7.634c.1158682.8714129.1396661 1.7526035.071 2.629zm-7.611 7.114 6.384-2.438c1.9385031-.7421759 3.2208228-2.6002878 3.227-4.676 0-1.961.117-2.9-.5-4.195l17.95-17.949c.0741103.2662406.2550975.4899408.5.618.6541885.3458078 1.0624824 1.0260409 1.06 1.766v3c0 1.1045695-.8954305 2-2 2h-1.02c-.2798661-.0009197-.5473108.1154816-.7373604.3209252-.1900495.2054435-.2853104.4811269-.2626396.7600748.008.095.007.206.007.309.1625488 2.9285999-1.0710934 5.7612293-3.326 7.637-1.0788452.9380663-1.6900467 2.3034852-1.671 3.733v2c.0058291 2.0746817 1.2868338 3.932218 3.224 4.675l6.387 2.44c-8.9636208 5.502703-20.2587558 5.5023164-29.222-.001zm31.246-1.368-7.7-2.942c-1.1700558-.4352971-1.943176-1.5556222-1.935-2.804v-2c-.0114824-.8383512.3404322-1.6406436.965-2.2 2.5483705-2.1123118 4.0233806-5.2500071 4.024-8.56 1.0644998.0055887 2.0873187-.4133702 2.8420123-1.1641223.7546935-.7507521 1.1790024-1.7713632 1.1789877-2.8358777v-3c.0025292-1.1482803-.4906411-2.2417842-1.353-3 .1329585-.6157715.2238354-1.2398816.272-1.868l8.071-8.071c8.6313846 12.4259732 5.8105732 29.4638516-6.365 38.445z"/></g></g></g></svg>