<?xml version="1.0" encoding="iso-8859-1"?>
<!-- Generator: Adobe Illustrator 19.0.0, SVG Export Plug-In . SVG Version: 6.00 Build 0)  -->
<svg version="1.1" id="Capa_1" xmlns="http://www.w3.org/2000/svg" xmlns:xlink="http://www.w3.org/1999/xlink" x="0px" y="0px"
	 viewBox="0 0 459.755 459.755" style="enable-background:new 0 0 459.755 459.755;" xml:space="preserve" width='24'>
<path style="fill:#4DCFE0;" d="M229.878,255.739c-3.135,0-6.792-1.045-9.404-3.135L6.269,89.6l18.808-25.078l204.8,155.69
	l204.8-155.69L453.486,89.6L239.282,252.604C236.669,254.694,233.012,255.739,229.878,255.739z"/>
<path style="fill:#1185E0;" d="M444.082,398.367H15.673C6.792,398.367,0,391.576,0,382.694V77.061
	c0-8.882,6.792-15.673,15.673-15.673h428.408c8.882,0,15.673,6.792,15.673,15.673v305.633
	C459.755,391.576,452.963,398.367,444.082,398.367z M31.347,367.02h397.061V92.735H31.347V367.02z"/>
<g>
</g>
<g>
</g>
<g>
</g>
<g>
</g>
<g>
</g>
<g>
</g>
<g>
</g>
<g>
</g>
<g>
</g>
<g>
</g>
<g>
</g>
<g>
</g>
<g>
</g>
<g>
</g>
<g>
</g>
</svg>
